<svg width="21" height="16" viewBox="0 0 21 16" fill="none" xmlns="http://www.w3.org/2000/svg">
<path id="Vector" d="M18.2233 14H16.2233V5.25L10.2233 9L4.22327 5.25V14H2.22327V2H3.42327L10.2233 6.25L17.0233 2H18.2233M18.2233 0H2.22327C1.11327 0 0.223267 0.89 0.223267 2V14C0.223267 14.5304 0.43398 15.0391 0.809053 15.4142C1.18413 15.7893 1.69283 16 2.22327 16H18.2233C18.7537 16 19.2624 15.7893 19.6375 15.4142C20.0126 15.0391 20.2233 14.5304 20.2233 14V2C20.2233 1.46957 20.0126 0.960859 19.6375 0.585786C19.2624 0.210714 18.7537 0 18.2233 0Z" fill="black"/>
</svg>
