<svg width="21" height="21" viewBox="0 0 21 21" fill="none" xmlns="http://www.w3.org/2000/svg">
<path d="M6.52327 0.456055H14.9233C18.1233 0.456055 20.7233 3.05605 20.7233 6.25605V14.6561C20.7233 16.1943 20.1122 17.6696 19.0245 18.7573C17.9368 19.845 16.4615 20.4561 14.9233 20.4561H6.52327C3.32327 20.4561 0.723267 17.8561 0.723267 14.6561V6.25605C0.723267 4.7178 1.33434 3.24255 2.42205 2.15484C3.50976 1.06712 4.98501 0.456055 6.52327 0.456055ZM6.32327 2.45605C5.36849 2.45605 4.45281 2.83534 3.77768 3.51047C3.10255 4.1856 2.72327 5.10128 2.72327 6.05605V14.8561C2.72327 16.8461 4.33327 18.4561 6.32327 18.4561H15.1233C16.078 18.4561 16.9937 18.0768 17.6689 17.4016C18.344 16.7265 18.7233 15.8108 18.7233 14.8561V6.05605C18.7233 4.06605 17.1133 2.45605 15.1233 2.45605H6.32327ZM15.9733 3.95605C16.3048 3.95605 16.6227 4.08775 16.8572 4.32217C17.0916 4.55659 17.2233 4.87453 17.2233 5.20605C17.2233 5.53758 17.0916 5.85552 16.8572 6.08994C16.6227 6.32436 16.3048 6.45605 15.9733 6.45605C15.6417 6.45605 15.3238 6.32436 15.0894 6.08994C14.855 5.85552 14.7233 5.53758 14.7233 5.20605C14.7233 4.87453 14.855 4.55659 15.0894 4.32217C15.3238 4.08775 15.6417 3.95605 15.9733 3.95605ZM10.7233 5.45605C12.0493 5.45605 13.3211 5.98284 14.2588 6.92052C15.1965 7.8582 15.7233 9.12997 15.7233 10.4561C15.7233 11.7821 15.1965 13.0539 14.2588 13.9916C13.3211 14.9293 12.0493 15.4561 10.7233 15.4561C9.39718 15.4561 8.12541 14.9293 7.18773 13.9916C6.25005 13.0539 5.72327 11.7821 5.72327 10.4561C5.72327 9.12997 6.25005 7.8582 7.18773 6.92052C8.12541 5.98284 9.39718 5.45605 10.7233 5.45605ZM10.7233 7.45605C9.92762 7.45605 9.16455 7.77212 8.60195 8.33473C8.03934 8.89734 7.72327 9.66041 7.72327 10.4561C7.72327 11.2517 8.03934 12.0148 8.60195 12.5774C9.16455 13.14 9.92762 13.4561 10.7233 13.4561C11.5189 13.4561 12.282 13.14 12.8446 12.5774C13.4072 12.0148 13.7233 11.2517 13.7233 10.4561C13.7233 9.66041 13.4072 8.89734 12.8446 8.33473C12.282 7.77212 11.5189 7.45605 10.7233 7.45605Z" fill="black"/>
</svg>
