<svg width="15" height="20" viewBox="0 0 15 20" fill="none" xmlns="http://www.w3.org/2000/svg">
<path id="Vector" d="M7.22327 9.5C6.56023 9.5 5.92434 9.23661 5.4555 8.76777C4.98666 8.29893 4.72327 7.66304 4.72327 7C4.72327 6.33696 4.98666 5.70107 5.4555 5.23223C5.92434 4.76339 6.56023 4.5 7.22327 4.5C7.88631 4.5 8.52219 4.76339 8.99103 5.23223C9.45987 5.70107 9.72327 6.33696 9.72327 7C9.72327 7.3283 9.6586 7.65339 9.53297 7.95671C9.40733 8.26002 9.22318 8.53562 8.99103 8.76777C8.75889 8.99991 8.48329 9.18406 8.17998 9.3097C7.87666 9.43534 7.55157 9.5 7.22327 9.5ZM7.22327 0C5.36675 0 3.58627 0.737498 2.27352 2.05025C0.960764 3.36301 0.223267 5.14348 0.223267 7C0.223267 12.25 7.22327 20 7.22327 20C7.22327 20 14.2233 12.25 14.2233 7C14.2233 5.14348 13.4858 3.36301 12.173 2.05025C10.8603 0.737498 9.07978 0 7.22327 0Z" fill="black"/>
</svg>
