<svg width="122" height="90" viewBox="0 0 122 90" fill="none" xmlns="http://www.w3.org/2000/svg">
<g filter="url(#filter0_d_199_9)">
<path d="M48.647 74.1931C43.0834 77.4329 36.099 73.435 36.075 66.9968L35.88 14.4859C35.8561 8.04775 42.8106 3.99804 48.3981 7.19639L93.9715 33.2829C99.559 36.4813 99.5889 44.5289 94.0253 47.7687L48.647 74.1931Z" fill="#F3796E"/>
</g>
<g clip-path="url(#clip0_199_9)">
<g clip-path="url(#clip1_199_9)">
<path d="M93.3953 35.5447C92.473 35.5447 91.7226 36.2951 91.7226 37.2163C91.7165 38.5639 93.3317 39.6812 93.3953 39.7264C93.3953 39.7264 95.074 38.5639 95.068 37.2174C95.068 36.2951 94.3175 35.5447 93.3953 35.5447ZM93.3953 38.0537C92.9332 38.0537 92.5589 37.6794 92.5589 37.2174C92.5589 36.7553 92.9332 36.381 93.3953 36.381C93.8573 36.381 94.2316 36.7553 94.2316 37.2174C94.2316 37.6794 93.8573 38.0537 93.3953 38.0537Z" fill="white"/>
</g>
</g>
<path d="M38.8515 70.5516C38.0228 68.1618 37.7784 65.5302 37.7784 63.0088C37.7784 60.8333 38.1576 58.797 38.7108 56.6886C39.2994 54.4455 40.0643 52.1302 41.3453 50.175C41.698 49.6366 42.2699 49.0337 42.889 48.8071C43.8097 48.4703 44.9328 49.2825 45.6687 49.7044C46.7983 50.3519 47.8011 51.0401 49.1168 51.2613C50.0267 51.4143 51.0008 51.4209 51.9052 51.2261C53.6845 50.8429 54.5464 49.5013 54.6717 47.7472C54.8281 45.5575 53.7712 43.9783 52.8728 42.1C51.1133 38.4208 48.8844 34.252 49.8293 30.0622C50.2819 28.0553 51.461 26.3728 53.2071 25.277C55.0825 24.1001 58.1464 23.3545 59.9627 24.9912C61.1137 26.0283 61.6457 27.7093 62.2145 29.1034C62.9147 30.8194 63.4966 32.6098 64.3476 34.2581C66.0444 37.5442 67.9095 40.9376 70.7117 43.4326C73.0043 45.4738 75.5802 46.2798 78.6108 45.8604C81.3554 45.4805 83.7767 43.5194 86.1668 42.2627C88.0789 41.2574 89.8659 39.9427 92.0296 39.4963" stroke="#DB4437" stroke-width="0.627257" stroke-linecap="round" stroke-dasharray="1.25 1.25"/>
<rect x="50.0058" y="8.11694" width="47.9382" height="11.8295" rx="5.91477" transform="rotate(29.7999 50.0058 8.11694)" fill="white"/>
<rect x="73.4661" y="27.1509" width="57.351" height="11.4049" rx="5.70244" transform="rotate(119.146 73.4661 27.1509)" fill="white"/>
<path d="M76.3044 46.2356L75.7608 45.3825L75.2381 46.2356H74.8408L75.581 45.0982L74.8408 43.944H75.2715L75.8152 44.7929L76.3337 43.944H76.731L75.995 45.0773L76.7351 46.2356H76.3044Z" fill="white"/>
<path d="M45.3598 49.7898L44.8162 48.9367L44.2935 49.7898H43.8962L44.6364 48.6524L43.8962 47.4982H44.3269L44.8706 48.3471L45.3891 47.4982H45.7864L45.0504 48.6315L45.7905 49.7898H45.3598Z" fill="white"/>
<path d="M63.5827 16.7396L56.343 22.7741L54.4775 21.695L56.0988 12.4105L57.7448 13.3627L56.3289 20.6717L61.9477 15.7938L63.5827 16.7396ZM66.2596 18.288L61.829 25.9474L60.2927 25.0588L64.7233 17.3993L66.2596 18.288ZM70.6744 20.8417C71.4792 21.3072 72.0941 21.8728 72.5194 22.5386C72.9519 23.2086 73.1635 23.9315 73.1542 24.7072C73.1564 25.4798 72.9354 26.2501 72.491 27.0183C72.0467 27.7864 71.4891 28.3621 70.8183 28.7454C70.1591 29.1256 69.4312 29.2953 68.6347 29.2544C67.8455 29.2177 67.0486 28.9667 66.2439 28.5012L63.5663 26.9524L67.9969 19.2929L70.6744 20.8417ZM66.9444 27.1636C67.7491 27.6291 68.4979 27.7693 69.1907 27.5843C69.8835 27.3992 70.4606 26.908 70.9218 26.1106C71.3831 25.3132 71.5233 24.5644 71.3425 23.8643C71.1659 23.1568 70.6753 22.5703 69.8706 22.1048L68.7842 21.4764L65.858 26.5352L66.9444 27.1636ZM77.6184 24.8584L73.1879 32.5179L71.6516 31.6292L76.0821 23.9697L77.6184 24.8584ZM84.5682 28.8784L83.8509 30.1184L81.8098 28.9377L78.0965 35.3572L76.5602 34.4686L80.2735 28.0491L78.2325 26.8685L78.9497 25.6285L84.5682 28.8784Z" fill="#F3796E"/>
<defs>
<filter id="filter0_d_199_9" x="25.8799" y="0.0788574" width="82.3002" height="89.2627" filterUnits="userSpaceOnUse" color-interpolation-filters="sRGB">
<feFlood flood-opacity="0" result="BackgroundImageFix"/>
<feColorMatrix in="SourceAlpha" type="matrix" values="0 0 0 0 0 0 0 0 0 0 0 0 0 0 0 0 0 0 127 0" result="hardAlpha"/>
<feOffset dy="4"/>
<feGaussianBlur stdDeviation="5"/>
<feComposite in2="hardAlpha" operator="out"/>
<feColorMatrix type="matrix" values="0 0 0 0 0 0 0 0 0 0 0 0 0 0 0 0 0 0 0.25 0"/>
<feBlend mode="normal" in2="BackgroundImageFix" result="effect1_dropShadow_199_9"/>
<feBlend mode="normal" in="SourceGraphic" in2="effect1_dropShadow_199_9" result="shape"/>
</filter>
<clipPath id="clip0_199_9">
<rect width="5.01806" height="5.01806" fill="white" transform="translate(90.8861 35.5447)"/>
</clipPath>
<clipPath id="clip1_199_9">
<rect width="5.01806" height="5.01806" fill="white" transform="translate(90.8862 35.1265)"/>
</clipPath>
</defs>
</svg>
