<svg width="1438" height="667" viewBox="0 0 1438 667" fill="none" xmlns="http://www.w3.org/2000/svg">
<path d="M1442.8 641.97C1443.34 640.698 1442.74 639.232 1441.47 638.696L1420.74 629.961C1419.46 629.425 1418 630.022 1417.46 631.294C1416.92 632.567 1417.52 634.033 1418.79 634.569L1437.23 642.333L1429.46 660.764C1428.93 662.037 1429.52 663.503 1430.79 664.039C1432.07 664.575 1433.53 663.978 1434.07 662.706L1442.8 641.97ZM3.6241 51.9006C6.24723 49.6591 8.89005 47.5058 11.5523 45.4392L8.48631 41.4895C5.76124 43.6049 3.05769 45.8078 0.375896 48.0994L3.6241 51.9006ZM27.7574 34.0679C33.4219 30.4989 39.1685 27.2873 44.9949 24.4204L42.7874 19.9341C36.802 22.8793 30.9027 26.1765 25.092 29.8376L27.7574 34.0679ZM63.1488 16.6813C69.3647 14.4242 75.6669 12.5234 82.0534 10.9653L80.8684 6.10779C74.3076 7.70834 67.8312 9.66161 61.4422 11.9816L63.1488 16.6813ZM101.548 7.29484C108.008 6.42443 114.549 5.87369 121.17 5.63027L120.987 0.633643C114.209 0.882798 107.506 1.4468 100.88 2.33963L101.548 7.29484ZM141.122 5.80181C147.595 6.14046 154.14 6.74833 160.754 7.61471L161.403 2.65707C154.667 1.77464 147.993 1.15441 141.383 0.808634L141.122 5.80181ZM180.506 10.9189C186.862 12.2049 193.278 13.7108 199.751 15.4275L201.032 10.5946C194.468 8.85381 187.956 7.32498 181.498 6.01819L180.506 10.9189ZM219.057 21.1094C225.228 23.0991 231.447 25.266 237.714 27.6023L239.46 22.9174C233.127 20.5563 226.837 18.3646 220.592 16.3507L219.057 21.1094ZM256.57 35.0774C262.535 37.5784 268.54 40.2217 274.583 43.0009L276.672 38.4582C270.58 35.6566 264.523 32.9904 258.504 30.4663L256.57 35.0774ZM292.828 51.7399C298.675 54.6491 304.556 57.6765 310.469 60.8165L312.814 56.4003C306.863 53.2408 300.943 50.1932 295.055 47.2634L292.828 51.7399ZM328.057 70.4276C333.85 73.6807 339.673 77.0343 345.525 80.4833L348.064 76.1758C342.184 72.71 336.331 69.339 330.505 66.0679L328.057 70.4276ZM362.532 90.7221C368.228 94.2207 373.948 97.8033 379.694 101.465L382.382 97.2489C376.614 93.5728 370.869 89.9755 365.15 86.4618L362.532 90.7221ZM396.408 112.292C401.935 115.928 407.485 119.633 413.055 123.402L415.857 119.261C410.27 115.481 404.702 111.764 399.156 108.115L396.408 112.292ZM429.796 134.875C435.187 138.616 440.598 142.412 446.026 146.26L448.918 142.181C443.477 138.324 438.052 134.518 432.646 130.767L429.796 134.875ZM462.365 157.958C467.786 161.876 473.224 165.841 478.678 169.851L481.64 165.822C476.175 161.805 470.726 157.832 465.294 153.905L462.365 157.958ZM494.679 181.702C500.027 185.693 505.391 189.722 510.769 193.786L513.783 189.797C508.398 185.727 503.026 181.692 497.668 177.695L494.679 181.702ZM526.802 205.974C532.066 209.998 537.343 214.053 542.633 218.135L545.688 214.176C540.392 210.09 535.109 206.031 529.838 202.002L526.802 205.974ZM558.538 230.461C563.815 234.566 569.103 238.696 574.402 242.847L577.485 238.911C572.182 234.757 566.89 230.624 561.609 226.515L558.538 230.461ZM590.126 255.199C595.378 259.335 600.64 263.489 605.912 267.658L609.013 263.737C603.739 259.565 598.474 255.409 593.219 251.271L590.126 255.199ZM621.688 280.155C626.906 284.294 632.133 288.446 637.368 292.606L640.479 288.692C635.243 284.53 630.015 280.378 624.795 276.238L621.688 280.155ZM653.099 305.113C658.341 309.282 663.592 313.458 668.85 317.638L671.961 313.724C666.704 309.544 661.454 305.369 656.211 301.2L653.099 305.113ZM684.549 330.11C689.789 334.269 695.036 338.43 700.289 342.589L703.393 338.669C698.142 334.511 692.896 330.352 687.657 326.193L684.549 330.11ZM716.064 355.058C721.319 359.204 726.58 363.346 731.846 367.481L734.934 363.548C729.671 359.416 724.414 355.276 719.161 351.133L716.064 355.058ZM747.661 379.864C752.937 383.983 758.219 388.094 763.505 392.192L766.568 388.241C761.287 384.146 756.01 380.039 750.738 375.923L747.661 379.864ZM779.434 404.494C784.747 408.582 790.065 412.654 795.387 416.71L798.417 412.733C793.102 408.682 787.79 404.614 782.482 400.531L779.434 404.494ZM811.36 428.822C816.733 432.874 822.108 436.906 827.486 440.914L830.474 436.906C825.104 432.903 819.736 428.877 814.371 424.83L811.36 428.822ZM843.642 452.882C849.03 456.846 854.42 460.785 859.811 464.695L862.747 460.648C857.365 456.744 851.984 452.812 846.605 448.854L843.642 452.882ZM876.186 476.479C881.661 480.386 887.136 484.262 892.612 488.102L895.483 484.009C890.019 480.177 884.555 476.309 879.091 472.409L876.186 476.479ZM909.041 499.517C914.605 503.345 920.169 507.134 925.733 510.881L928.526 506.734C922.977 502.997 917.426 499.217 911.875 495.398L909.041 499.517ZM942.494 522.042C948.08 525.717 953.665 529.348 959.248 532.93L961.948 528.722C956.381 525.15 950.813 521.53 945.242 517.865L942.494 522.042ZM976.341 543.746C982.063 547.315 987.783 550.83 993.5 554.288L996.088 550.01C990.391 546.564 984.691 543.061 978.987 539.503L976.341 543.746ZM1010.64 564.486C1016.51 567.919 1022.38 571.288 1028.24 574.589L1030.69 570.233C1024.86 566.945 1019.01 563.59 1013.17 560.17L1010.64 564.486ZM1045.86 584.31C1051.74 587.492 1057.63 590.602 1063.51 593.636L1065.8 589.193C1059.95 586.173 1054.09 583.078 1048.23 579.911L1045.86 584.31ZM1081.66 602.772C1087.71 605.735 1093.75 608.613 1099.78 611.404L1101.88 606.865C1095.88 604.091 1089.88 601.229 1083.86 598.282L1081.66 602.772ZM1118.12 619.619C1124.36 622.324 1130.6 624.929 1136.82 627.431L1138.69 622.791C1132.5 620.307 1126.31 617.719 1120.11 615.031L1118.12 619.619ZM1155.47 634.62C1161.86 636.977 1168.23 639.22 1174.6 641.343L1176.18 636.6C1169.87 634.494 1163.54 632.269 1157.2 629.929L1155.47 634.62ZM1193.83 647.398C1200.29 649.308 1206.73 651.09 1213.16 652.737L1214.4 647.893C1208.03 646.262 1201.65 644.497 1195.25 642.603L1193.83 647.398ZM1232.94 657.384C1239.51 658.788 1246.07 660.044 1252.62 661.148L1253.45 656.218C1246.98 655.126 1240.49 653.884 1233.98 652.494L1232.94 657.384ZM1272.7 664.054C1279.41 664.862 1286.1 665.502 1292.78 665.966L1293.13 660.978C1286.54 660.52 1279.93 659.888 1273.3 659.09L1272.7 664.054ZM1312.93 666.832C1319.7 666.939 1326.45 666.857 1333.17 666.58L1332.96 661.584C1326.34 661.857 1319.68 661.938 1313.01 661.832L1312.93 666.832ZM1353.28 665.154C1359.99 664.476 1366.67 663.594 1373.33 662.502L1372.52 657.568C1365.97 658.643 1359.39 659.512 1352.78 660.179L1353.28 665.154ZM1393.21 658.588C1399.72 657.089 1406.21 655.378 1412.66 653.45L1411.23 648.659C1404.88 650.556 1398.5 652.24 1392.09 653.715L1393.21 658.588ZM1431.89 647.026C1435.08 645.845 1438.27 644.608 1441.44 643.315L1439.56 638.684C1436.43 639.957 1433.3 641.174 1430.16 642.337L1431.89 647.026Z" fill="#F4B400"/>
</svg>
