<svg width="1439" height="903" viewBox="0 0 1439 903" fill="none" xmlns="http://www.w3.org/2000/svg">
<path d="M777 447.011L775.383 448.918L775.485 449.004L775.596 449.079L777 447.011ZM316.5 621.011L318.667 622.258L316.5 621.011ZM1.50457 900.162C1.58797 901.541 2.77283 902.59 4.15102 902.507L26.6099 901.148C27.9881 901.064 29.0378 899.879 28.9543 898.501C28.8709 897.123 27.6861 896.073 26.3079 896.157L6.34441 897.365L5.13626 877.401C5.05285 876.023 3.86799 874.974 2.4898 875.057C1.11161 875.141 0.0619833 876.325 0.145389 877.704L1.50457 900.162ZM5.87133 901.669C7.46794 899.867 9.72831 897.819 12.6474 895.507L9.54289 891.587C6.51269 893.988 3.99967 896.242 2.12867 898.354L5.87133 901.669ZM28.1704 884.548C33.0024 881.371 38.4208 877.932 44.3518 874.211L41.6945 869.975C35.7542 873.702 30.3003 877.164 25.4235 880.37L28.1704 884.548ZM60.6985 864.001C65.8751 860.769 71.3085 857.365 76.9594 853.785L74.2836 849.562C68.646 853.133 63.2231 856.53 58.0502 859.76L60.6985 864.001ZM93.1964 843.375C98.4326 839.973 103.807 836.432 109.296 832.749L106.51 828.597C101.044 832.265 95.6903 835.792 90.4721 839.182L93.1964 843.375ZM125.239 821.853C130.407 818.254 135.65 814.533 140.949 810.687L138.013 806.641C132.741 810.466 127.525 814.168 122.381 817.75L125.239 821.853ZM156.466 799.177C161.525 795.338 166.619 791.387 171.731 787.32L168.618 783.407C163.538 787.449 158.474 791.377 153.444 795.193L156.466 799.177ZM186.678 775.131C191.563 771.046 196.45 766.854 201.328 762.553L198.021 758.802C193.177 763.073 188.323 767.237 183.471 771.295L186.678 775.131ZM215.644 749.575C220.318 745.218 224.971 740.756 229.59 736.189L226.075 732.633C221.491 737.165 216.874 741.593 212.234 745.918L215.644 749.575ZM243.132 722.384C247.541 717.746 251.909 713.007 256.223 708.163L252.49 704.837C248.212 709.639 243.881 714.339 239.508 718.939L243.132 722.384ZM268.833 693.518C272.928 688.593 276.964 683.566 280.929 678.438L276.973 675.38C273.045 680.46 269.047 685.44 264.988 690.321L268.833 693.518ZM292.472 662.924C296.203 657.709 299.856 652.395 303.424 646.98L299.248 644.23C295.717 649.59 292.1 654.851 288.406 660.014L292.472 662.924ZM313.743 630.616C315.408 627.855 317.05 625.069 318.667 622.258L314.333 619.765C312.733 622.546 311.109 625.302 309.461 628.035L313.743 630.616ZM318.667 622.258C320.377 619.286 322.093 616.348 323.815 613.444L319.515 610.893C317.781 613.816 316.054 616.773 314.333 619.765L318.667 622.258ZM334.249 596.374C337.895 590.587 341.564 584.948 345.254 579.453L341.103 576.665C337.386 582.201 333.69 587.881 330.018 593.708L334.249 596.374ZM356.746 562.898C360.717 557.365 364.71 551.992 368.722 546.777L364.759 543.728C360.713 548.988 356.687 554.405 352.684 559.982L356.746 562.898ZM381.217 531.112C385.556 525.869 389.913 520.803 394.287 515.91L390.56 512.578C386.143 517.519 381.743 522.633 377.365 527.924L381.217 531.112ZM408.009 501.175C412.766 496.277 417.538 491.575 422.322 487.064L418.892 483.426C414.054 487.988 409.229 492.742 404.422 497.692L408.009 501.175ZM437.248 473.64C442.424 469.204 447.61 464.984 452.802 460.975L449.746 457.018C444.486 461.08 439.234 465.353 433.994 469.843L437.248 473.64ZM468.989 449.156C474.596 445.294 480.203 441.67 485.805 438.275L483.213 433.999C477.527 437.445 471.838 441.122 466.153 445.038L468.989 449.156ZM503.229 428.432C509.243 425.279 515.245 422.382 521.228 419.731L519.202 415.16C513.118 417.856 507.018 420.801 500.908 424.004L503.229 428.432ZM539.798 412.256C546.186 409.941 552.543 407.899 558.862 406.118L557.506 401.306C551.069 403.12 544.596 405.199 538.094 407.555L539.798 412.256ZM578.3 401.422C584.925 400.087 591.498 399.032 598.007 398.243L597.406 393.279C590.767 394.084 584.065 395.159 577.312 396.521L578.3 401.422ZM617.931 396.635C624.68 396.364 631.347 396.376 637.919 396.652L638.129 391.657C631.421 391.374 624.617 391.363 617.73 391.639L617.931 396.635ZM657.796 398.316C664.493 399.159 671.071 400.276 677.515 401.647L678.556 396.757C671.974 395.357 665.258 394.216 658.421 393.356L657.796 398.316ZM696.839 406.625C703.291 408.585 709.581 410.8 715.692 413.25L717.552 408.609C711.308 406.106 704.882 403.842 698.291 401.841L696.839 406.625ZM733.861 421.474C739.882 424.527 745.687 427.811 751.255 431.302L753.911 427.065C748.214 423.494 742.278 420.135 736.122 417.014L733.861 421.474ZM767.634 442.668C770.288 444.704 772.872 446.788 775.383 448.918L778.617 445.105C776.043 442.922 773.395 440.786 770.676 438.7L767.634 442.668ZM775.596 449.079C778.475 451.034 781.342 452.944 784.197 454.81L786.932 450.625C784.102 448.775 781.259 446.881 778.404 444.943L775.596 449.079ZM801.19 465.482C806.808 468.866 812.38 472.078 817.906 475.121L820.318 470.741C814.85 467.73 809.334 464.551 803.77 461.199L801.19 465.482ZM835.997 484.569C841.979 487.521 847.906 490.273 853.779 492.832L855.776 488.248C849.978 485.722 844.123 483.003 838.21 480.085L835.997 484.569ZM872.399 500.367C878.703 502.721 884.942 504.849 891.118 506.758L892.594 501.98C886.513 500.101 880.364 498.004 874.148 495.683L872.399 500.367ZM910.402 512.062C916.948 513.637 923.418 514.964 929.815 516.049L930.652 511.12C924.369 510.054 918.009 508.75 911.573 507.201L910.402 512.062ZM949.683 518.68C956.349 519.312 962.931 519.679 969.43 519.793L969.518 514.794C963.148 514.682 956.694 514.322 950.154 513.703L949.683 518.68ZM989.531 519.335C996.208 518.91 1002.79 518.215 1009.29 517.264L1008.56 512.317C1002.2 513.248 995.754 513.928 989.213 514.345L989.531 519.335ZM1028.96 513.548C1035.46 512.039 1041.87 510.272 1048.19 508.261L1046.67 503.497C1040.48 505.468 1034.2 507.199 1027.83 508.677L1028.96 513.548ZM1066.95 501.464C1073.11 498.964 1079.17 496.231 1085.13 493.282L1082.91 488.8C1077.06 491.697 1071.11 494.379 1065.07 496.832L1066.95 501.464ZM1102.7 483.824C1108.42 480.492 1114.04 476.961 1119.58 473.247L1116.79 469.095C1111.34 472.753 1105.8 476.227 1100.18 479.504L1102.7 483.824ZM1135.78 461.681C1141.05 457.681 1146.25 453.517 1151.35 449.201L1148.13 445.382C1143.08 449.643 1137.96 453.752 1132.76 457.696L1135.78 461.681ZM1166.2 436.035C1171.04 431.531 1175.8 426.895 1180.49 422.139L1176.93 418.629C1172.29 423.336 1167.58 427.921 1162.79 432.374L1166.2 436.035ZM1194.13 407.731C1198.58 402.849 1202.95 397.865 1207.26 392.789L1203.44 389.557C1199.18 394.589 1194.84 399.528 1190.44 404.363L1194.13 407.731ZM1219.85 377.425C1223.95 372.254 1227.99 367.005 1231.95 361.69L1227.95 358.699C1224.01 363.977 1220 369.186 1215.93 374.317L1219.85 377.425ZM1243.62 345.61C1247.43 340.211 1251.17 334.756 1254.86 329.259L1250.7 326.477C1247.04 331.942 1243.32 337.363 1239.53 342.728L1243.62 345.61ZM1265.71 312.65C1269.27 307.065 1272.77 301.447 1276.21 295.807L1271.94 293.204C1268.52 298.816 1265.04 304.406 1261.49 309.961L1265.71 312.65ZM1286.37 278.783C1289.72 273.054 1293.01 267.314 1296.24 261.575L1291.88 259.123C1288.67 264.84 1285.39 270.556 1282.06 276.26L1286.37 278.783ZM1305.83 244.206C1309 238.374 1312.1 232.555 1315.14 226.759L1310.72 224.435C1307.68 230.211 1304.59 236.011 1301.44 241.822L1305.83 244.206ZM1324.28 209.091C1327.3 203.181 1330.25 197.311 1333.14 191.492L1328.66 189.269C1325.78 195.073 1322.83 200.927 1319.83 206.82L1324.28 209.091ZM1341.91 173.605C1344.84 167.574 1347.7 161.618 1350.49 155.75L1345.98 153.601C1343.19 159.459 1340.34 165.404 1337.42 171.422L1341.91 173.605ZM1358.9 137.966C1361.79 131.804 1364.61 125.767 1367.36 119.875L1362.83 117.763C1360.08 123.653 1357.27 129.685 1354.37 135.84L1358.9 137.966ZM1375.71 101.936C1378.56 95.8106 1381.33 89.8865 1384.02 84.189L1379.49 82.0577C1376.8 87.7647 1374.03 93.6964 1371.18 99.8245L1375.71 101.936ZM1392.54 66.3264C1395.6 60.008 1398.54 54.077 1401.37 48.5798L1396.92 46.295C1394.07 51.836 1391.11 57.8032 1388.04 64.1453L1392.54 66.3264ZM1410.7 31.3364C1414.55 24.6797 1418.11 19.1845 1421.41 14.9741L1417.48 11.8887C1413.97 16.3579 1410.27 22.0759 1406.37 28.834L1410.7 31.3364ZM1434.63 5.58859C1436.28 5.91852 1438.25 7.29376 1440.36 10.8011L1444.64 8.22146C1442.21 4.17714 1439.26 1.41214 1435.61 0.684937L1434.63 5.58859Z" fill="#F4B400"/>
</svg>
