<svg width="657" height="536" viewBox="0 0 657 536" fill="none" xmlns="http://www.w3.org/2000/svg">
<path d="M143.659 111.95C143.659 50.1216 193.78 0 255.608 0H559.901C568.201 0 574.928 6.72774 574.928 15.0268V381.681C574.928 449.734 519.761 504.901 451.708 504.901H158.686C150.386 504.901 143.659 498.173 143.659 489.874V111.95Z" fill="#DB4437" fill-opacity="0.15"/>
<path opacity="0.56" d="M57.6793 254.34C57.5154 106.582 227.537 12.767 368.047 52.3255C470.192 80.939 517.739 162.245 529.216 183.666C560.859 242.769 597.421 366.604 524.953 426.958C479.045 465.11 403.954 474.804 350.996 444.001C328.698 431.024 312.302 411.635 305.252 387.556C300.989 373.171 301.973 355.816 284.758 349.249C276.888 346.278 267.871 346.278 259.509 348.154C221.307 357.067 196.878 401.316 154.577 396.781C129.492 394.123 112.277 373.171 97.1928 355.972C72.2715 327.359 57.6793 291.709 57.6793 254.34Z" fill="#FFDD95"/>
<path d="M255.375 334.91C262.964 307.169 319.596 318.426 356.977 272.593C375.245 250.212 389.017 214.028 379.602 181.328C364.144 127.588 297.534 123.166 297.815 89.9298C298.096 56.1579 365.408 12.0668 418.528 23.5921C480.079 36.8596 485.841 116.465 548.235 123.434C585.896 127.722 604.727 101.053 627.774 111.908C661.36 127.722 660.517 194.864 652.085 234.666C637.189 305.293 585.897 348.312 567.628 363.187C552.732 375.383 448.039 458.07 344.751 423.092C295.004 406.206 247.646 362.517 255.375 334.91Z" fill="url(#paint0_linear_549_8)"/>
<path d="M302.621 435.315C337.461 394.319 394.918 414.817 410.793 384.807C428.494 351.18 373.284 293.304 347.716 266.509C310.207 227.255 277.756 193.226 224.794 188.001C164.807 181.972 94.0038 214.26 85.1534 256.595C76.5839 297.591 132.215 320.366 122.522 358.281C109.738 407.583 7.18535 402.09 0.863614 440.004C-4.75571 474.033 71.3861 518.244 137.694 530.703C154.412 533.785 235.189 548.924 272.558 508.196C295.456 483.277 279.301 462.779 302.621 435.315Z" fill="#F4B400" fill-opacity="0.79"/>
<defs>
<linearGradient id="paint0_linear_549_8" x1="298.027" y1="430.995" x2="529.501" y2="56.3104" gradientUnits="userSpaceOnUse">
<stop stop-color="#86E3CE"/>
<stop offset="1" stop-color="#D0E6A5"/>
</linearGradient>
</defs>
</svg>
