<svg width="19" height="18" viewBox="0 0 19 18" fill="none" xmlns="http://www.w3.org/2000/svg">
<path id="Vector" d="M3.84327 7.79C5.28327 10.62 7.60327 12.93 10.4333 14.38L12.6333 12.18C12.9033 11.91 13.3033 11.82 13.6533 11.94C14.7733 12.31 15.9833 12.51 17.2233 12.51C17.7733 12.51 18.2233 12.96 18.2233 13.51V17C18.2233 17.55 17.7733 18 17.2233 18C7.83327 18 0.223267 10.39 0.223267 1C0.223267 0.45 0.673267 0 1.22327 0H4.72327C5.27327 0 5.72327 0.45 5.72327 1C5.72327 2.25 5.92327 3.45 6.29327 4.57C6.40327 4.92 6.32327 5.31 6.04327 5.59L3.84327 7.79Z" fill="black"/>
</svg>
