<svg width="675" height="641" viewBox="0 0 675 641" fill="none" xmlns="http://www.w3.org/2000/svg">
<g filter="url(#filter0_d_40_5)">
<path d="M532.595 327.655C577.049 275.347 650.362 301.501 670.617 263.21C693.203 220.303 622.757 146.455 590.134 112.267C542.274 62.1805 500.867 18.7609 433.29 12.0941C356.75 4.40166 266.408 45.599 255.116 99.617C244.181 151.926 315.165 180.986 302.796 229.363C286.485 292.27 155.632 285.261 147.566 333.638C140.396 377.058 237.549 433.469 322.155 449.367C343.486 453.299 446.555 472.615 494.235 420.648C523.453 388.853 502.839 362.699 532.595 327.655Z" fill="#F4B400" fill-opacity="0.79"/>
<path opacity="0.56" d="M75.8654 405.264C75.6862 243.722 261.569 141.156 415.186 184.405C526.859 215.688 578.841 304.578 591.389 327.997C625.984 392.614 665.956 528.001 586.728 593.985C536.538 635.695 454.441 646.294 396.544 612.618C372.166 598.429 354.241 577.233 346.533 550.907C341.872 535.18 342.948 516.206 324.127 509.026C315.523 505.778 305.664 505.778 296.522 507.83C254.757 517.573 228.049 565.95 181.802 560.993C154.377 558.087 135.556 535.18 119.065 516.377C91.8189 485.094 75.8654 446.119 75.8654 405.264Z" fill="#FFDD95"/>
<path d="M5.06189 400.477C14.7414 365.092 86.9791 379.451 134.66 320.989C157.962 292.441 175.529 246.286 163.519 204.576C143.801 136.028 58.8369 130.387 59.1954 87.993C59.5539 44.9153 145.415 -11.325 213.171 3.37608C291.683 20.2995 299.032 121.84 378.619 130.729C426.658 136.199 450.677 102.181 480.074 116.028C522.915 136.199 521.84 221.842 511.085 272.612C492.084 362.699 426.658 417.572 403.355 436.546C384.355 452.102 250.814 557.574 119.065 512.958C55.6105 491.419 -4.79686 435.692 5.06189 400.477Z" fill="url(#paint0_linear_40_5)"/>
<path opacity="0.56" d="M123.546 187.14C120.499 177.567 114.763 168.849 107.593 163.55C95.5832 154.832 78.5545 151.071 63.4975 153.293C47.365 155.686 26.0342 170.558 36.7892 188.336C41.8082 196.542 51.3084 198.764 60.4501 200.302C63.3181 200.815 66.1862 201.328 68.3372 203.208C71.0259 205.431 71.5638 209.191 72.46 212.439C76.2243 224.576 89.8472 236.713 104.008 232.953C125.697 227.311 129.641 205.602 123.546 187.14Z" fill="#FFDD95"/>
<path d="M89.6679 254.492C89.6679 253.637 89.4887 253.295 89.4887 252.098C89.1302 249.705 88.9508 248.167 87.3376 245.944C84.8281 242.184 81.4224 239.79 76.9412 238.423C76.9412 238.423 76.941 238.423 76.7618 238.423C76.4033 238.252 75.8656 238.081 75.5071 237.91C72.6391 237.226 69.7712 237.226 67.0824 237.91C64.3937 238.765 61.884 239.961 59.733 241.842C59.1953 242.355 58.8369 243.038 58.2991 243.551C57.7614 244.064 57.2236 244.748 56.8651 245.261C56.1481 246.286 55.4311 248.167 55.0726 249.363C54.5348 250.731 54.5349 252.44 54.5349 253.979C54.5349 257.056 55.0725 258.252 56.148 260.816C57.0443 263.039 57.0444 262.868 58.4784 264.577C59.9124 266.458 59.7332 266.287 61.7049 267.654C62.4219 268.167 62.9596 268.68 63.6766 269.193C66.1861 270.731 69.2333 271.244 72.1013 271.415C75.1486 271.586 78.5543 270.389 81.0638 269.022C82.6771 268.167 83.5733 267.483 84.6488 266.287C85.5451 265.432 86.6206 264.064 87.3376 262.868C88.5923 260.816 89.13 258.765 89.3093 256.714C89.4885 256.03 89.6679 255.175 89.6679 254.492Z" fill="#FFDD95"/>
<path d="M57.7613 220.132C57.4028 219.107 56.865 218.081 56.148 217.226C55.9688 216.884 55.6103 216.542 55.2518 216.2C54.8933 215.859 54.714 215.688 54.3555 215.517C53.8178 215.004 53.1008 214.662 52.3838 214.491C51.6668 214.149 50.9499 213.978 50.2329 213.978C49.1574 213.807 47.9026 213.807 46.8271 214.149C46.1101 214.32 45.3932 214.662 44.6762 215.004C44.3177 215.175 43.0629 216.03 42.8837 216.371C42.7044 216.542 41.6289 217.91 41.4496 218.081C41.2704 218.423 40.5534 219.79 40.5534 220.132C40.3741 220.816 40.3742 221.671 40.1949 222.354C40.3742 223.038 40.3741 223.893 40.5534 224.577C40.9119 225.602 41.4497 226.628 42.1667 227.483C42.5252 228.167 43.0629 228.679 43.7799 229.021C44.3177 229.534 45.0347 229.876 45.7517 230.047C46.4687 230.389 47.1855 230.56 48.0818 230.56C48.7988 230.731 49.6951 230.731 50.4121 230.56C51.6669 230.56 52.7424 230.218 53.6387 229.534C54.1764 229.021 54.8934 228.679 55.4312 228.167C55.9689 227.654 56.3273 226.97 56.8651 226.457C57.2236 225.773 57.4028 225.09 57.7613 224.406C57.9406 223.722 57.9407 222.867 58.1199 222.184C57.9407 221.671 57.7613 220.816 57.7613 220.132Z" fill="#FFDD95"/>
<path d="M659.324 368.682C658.607 351.588 649.286 334.493 637.814 321.673C631.003 313.98 615.229 298.424 605.191 310.561C598.738 318.425 606.266 327.143 610.031 334.322C614.691 343.211 618.993 352.955 622.937 362.357C626.163 370.391 628.314 381.161 637.277 385.605C644.447 389.195 651.975 385.776 656.098 379.793C658.787 376.374 659.504 372.614 659.324 368.682Z" fill="url(#paint1_linear_40_5)"/>
<path d="M643.73 296.031C638.531 293.296 633.871 291.757 627.956 293.98C624.908 295.176 625.088 299.108 627.776 300.305C632.437 302.527 653.409 324.066 656.456 308.852C657.89 302.014 648.749 298.595 643.73 296.031Z" fill="url(#paint2_linear_40_5)"/>
<path d="M300.466 577.916C314.325 577.916 325.561 567.202 325.561 553.984C325.561 540.767 314.325 530.052 300.466 530.052C286.606 530.052 275.371 540.767 275.371 553.984C275.371 567.202 286.606 577.916 300.466 577.916Z" fill="url(#paint3_linear_40_5)"/>
<path d="M334.523 589.882C339.473 589.882 343.486 586.056 343.486 581.335C343.486 576.615 339.473 572.788 334.523 572.788C329.573 572.788 325.561 576.615 325.561 581.335C325.561 586.056 329.573 589.882 334.523 589.882Z" fill="url(#paint4_linear_40_5)"/>
<path d="M307.636 605.267C311.596 605.267 314.806 602.206 314.806 598.43C314.806 594.653 311.596 591.592 307.636 591.592C303.676 591.592 300.466 594.653 300.466 598.43C300.466 602.206 303.676 605.267 307.636 605.267Z" fill="url(#paint5_linear_40_5)"/>
<path d="M593.54 74.4884C606.409 74.4884 616.842 64.539 616.842 52.2658C616.842 39.9926 606.409 30.0432 593.54 30.0432C580.67 30.0432 570.237 39.9926 570.237 52.2658C570.237 64.539 580.67 74.4884 593.54 74.4884Z" stroke="url(#paint6_linear_40_5)" stroke-width="3.3333" stroke-miterlimit="10"/>
<path d="M616.484 89.5315L621.144 83.8903L625.805 78.4202L628.493 85.0869L631.182 91.7537L623.833 90.5571L616.484 89.5315Z" stroke="url(#paint7_linear_40_5)" stroke-width="1.2573" stroke-miterlimit="10"/>
<path d="M632.616 21.1543L637.277 15.5132L641.937 10.043L644.626 16.7098L647.315 23.3765L639.965 22.1799L632.616 21.1543Z" stroke="url(#paint8_linear_40_5)" stroke-width="1.2573" stroke-miterlimit="10"/>
</g>
<defs>
<filter id="filter0_d_40_5" x="0" y="0.987793" width="679" height="639.634" filterUnits="userSpaceOnUse" color-interpolation-filters="sRGB">
<feFlood flood-opacity="0" result="BackgroundImageFix"/>
<feColorMatrix in="SourceAlpha" type="matrix" values="0 0 0 0 0 0 0 0 0 0 0 0 0 0 0 0 0 0 127 0" result="hardAlpha"/>
<feOffset dy="4"/>
<feGaussianBlur stdDeviation="2"/>
<feComposite in2="hardAlpha" operator="out"/>
<feColorMatrix type="matrix" values="0 0 0 0 0 0 0 0 0 0 0 0 0 0 0 0 0 0 0.25 0"/>
<feBlend mode="normal" in2="BackgroundImageFix" result="effect1_dropShadow_40_5"/>
<feBlend mode="normal" in="SourceGraphic" in2="effect1_dropShadow_40_5" result="shape"/>
</filter>
<linearGradient id="paint0_linear_40_5" x1="59.4664" y1="523.038" x2="354.723" y2="45.1098" gradientUnits="userSpaceOnUse">
<stop stop-color="#86E3CE"/>
<stop offset="1" stop-color="#D0E6A5"/>
</linearGradient>
<linearGradient id="paint1_linear_40_5" x1="602.673" y1="346.692" x2="659.34" y2="346.692" gradientUnits="userSpaceOnUse">
<stop stop-color="#86E3CE"/>
<stop offset="1" stop-color="#D0E6A5"/>
</linearGradient>
<linearGradient id="paint2_linear_40_5" x1="625.839" y1="303.593" x2="656.675" y2="303.593" gradientUnits="userSpaceOnUse">
<stop stop-color="#86E3CE"/>
<stop offset="1" stop-color="#D0E6A5"/>
</linearGradient>
<linearGradient id="paint3_linear_40_5" x1="275.371" y1="553.984" x2="325.561" y2="553.984" gradientUnits="userSpaceOnUse">
<stop stop-color="#86E3CE"/>
<stop offset="1" stop-color="#D0E6A5"/>
</linearGradient>
<linearGradient id="paint4_linear_40_5" x1="325.561" y1="581.335" x2="343.486" y2="581.335" gradientUnits="userSpaceOnUse">
<stop stop-color="#86E3CE"/>
<stop offset="1" stop-color="#D0E6A5"/>
</linearGradient>
<linearGradient id="paint5_linear_40_5" x1="300.466" y1="598.43" x2="314.806" y2="598.43" gradientUnits="userSpaceOnUse">
<stop stop-color="#86E3CE"/>
<stop offset="1" stop-color="#D0E6A5"/>
</linearGradient>
<linearGradient id="paint6_linear_40_5" x1="567.25" y1="52.2658" x2="619.83" y2="52.2658" gradientUnits="userSpaceOnUse">
<stop stop-color="#86E3CE"/>
<stop offset="1" stop-color="#D0E6A5"/>
</linearGradient>
<linearGradient id="paint7_linear_40_5" x1="625.743" y1="76.1626" x2="623.863" y2="91.8933" gradientUnits="userSpaceOnUse">
<stop stop-color="#86E3CE"/>
<stop offset="1" stop-color="#D0E6A5"/>
</linearGradient>
<linearGradient id="paint8_linear_40_5" x1="641.871" y1="7.78771" x2="639.992" y2="23.5185" gradientUnits="userSpaceOnUse">
<stop stop-color="#86E3CE"/>
<stop offset="1" stop-color="#D0E6A5"/>
</linearGradient>
</defs>
</svg>
