<svg width="662" height="538" viewBox="0 0 662 538" fill="none" xmlns="http://www.w3.org/2000/svg">
<path opacity="0.56" d="M412.048 464.873C234.922 465.023 122.461 309.844 169.882 181.6C204.183 88.3733 301.649 44.977 327.328 34.5021C398.178 5.62113 546.627 -27.749 618.977 38.3929C664.711 80.2928 676.332 148.829 639.407 197.163C623.85 217.515 600.608 232.479 571.743 238.914C554.499 242.804 533.694 241.906 525.822 257.619C522.26 264.802 522.26 273.032 524.509 280.664C535.193 315.53 588.237 337.827 582.802 376.435C579.615 399.33 554.499 415.042 533.881 428.809C499.581 451.555 456.845 464.873 412.048 464.873Z" fill="#5792F5" fill-opacity="0.5"/>
<path d="M520.606 524.56C488.133 516.481 501.311 456.192 447.66 416.397C421.463 396.949 379.107 382.288 340.83 392.311C277.925 408.768 272.748 479.679 233.843 479.38C194.312 479.081 142.701 407.421 156.192 350.871C171.722 285.345 264.904 279.212 273.062 212.788C278.081 172.695 246.864 152.648 259.571 128.113C278.081 92.3583 356.674 93.2559 403.266 102.232C485.937 118.09 536.293 172.695 553.706 192.143C567.981 208.001 664.772 319.455 623.828 429.413C604.062 482.372 552.922 532.788 520.606 524.56Z" fill="url(#paint0_linear_544_2)"/>
<path d="M124.65 177.383C85.7385 236.985 21.5662 207.184 3.83641 250.815C-15.9331 299.704 45.7289 383.848 74.2848 422.804C116.177 479.874 152.421 529.348 211.573 536.945C278.569 545.71 357.647 498.768 367.532 437.218C377.103 377.616 314.97 344.503 325.796 289.381C340.074 217.702 454.612 225.688 461.672 170.566C467.948 121.092 382.908 56.8148 308.851 38.7004C290.18 34.2205 199.962 12.2104 158.227 71.4232C132.652 107.652 150.695 137.453 124.65 177.383Z" fill="#F4B400" fill-opacity="0.79"/>
<defs>
<linearGradient id="paint0_linear_544_2" x1="633.078" y1="479.154" x2="218.43" y2="197.489" gradientUnits="userSpaceOnUse">
<stop stop-color="#86E3CE"/>
<stop offset="1" stop-color="#D0E6A5"/>
</linearGradient>
</defs>
</svg>
