<svg width="671" height="591" viewBox="0 0 671 591" fill="none" xmlns="http://www.w3.org/2000/svg">
<path opacity="0.56" d="M423.66 362.174C423.796 522.164 282.374 623.744 165.501 580.911C80.5388 549.929 40.9897 461.892 31.4435 438.698C5.123 374.702 -25.2886 240.616 34.9893 175.266C73.1744 133.956 135.634 123.459 179.684 156.812C198.231 170.864 211.868 191.857 217.733 217.929C221.278 233.505 220.46 252.298 234.779 259.408C241.325 262.625 248.826 262.625 255.781 260.593C287.557 250.943 307.877 203.031 343.062 207.941C363.927 210.819 378.246 233.505 390.793 252.128C411.522 283.11 423.66 321.711 423.66 362.174Z" fill="#5792F5" fill-opacity="0.5"/>
<path d="M670.123 238.032C662.128 269.297 602.464 256.61 563.083 308.264C543.836 333.487 529.328 374.267 539.247 411.12C555.532 471.685 625.708 476.67 625.412 514.127C625.116 552.188 554.2 601.879 498.237 588.89C433.391 573.937 427.321 484.221 361.587 476.368C321.91 471.534 302.071 501.591 277.791 489.357C242.407 471.534 243.295 395.865 252.178 351.007C267.871 271.411 321.909 222.929 341.156 206.164C356.849 192.419 467.146 99.2299 575.963 138.65C628.373 157.681 678.266 206.919 670.123 238.032Z" fill="url(#paint0_linear_544_3)"/>
<path d="M219.877 149.46C183.08 210.316 122.394 179.888 105.628 224.436C86.9326 274.353 145.244 360.267 172.249 400.041C211.865 458.311 246.14 508.825 302.078 516.581C365.434 525.531 440.216 477.602 449.564 414.758C458.614 353.903 399.857 320.094 410.095 263.813C423.598 190.627 531.912 198.781 538.589 142.5C544.524 91.9859 464.104 26.3576 394.071 7.86232C376.414 3.28822 291.098 -19.1845 251.63 41.2731C227.445 78.2636 244.508 108.691 219.877 149.46Z" fill="#F4B400" fill-opacity="0.79"/>
<defs>
<linearGradient id="paint0_linear_544_3" x1="625.188" y1="129.744" x2="356.821" y2="535.823" gradientUnits="userSpaceOnUse">
<stop stop-color="#86E3CE"/>
<stop offset="1" stop-color="#D0E6A5"/>
</linearGradient>
</defs>
</svg>
