<svg width="586" height="577" viewBox="0 0 586 577" fill="none" xmlns="http://www.w3.org/2000/svg">
<path d="M75 163.909C75 98.7898 127.79 46 192.909 46H513.173C521.914 46 529 53.0859 529 61.8268V416.221C529 487.896 470.896 546 399.221 546H90.8267C82.0859 546 75 538.914 75 530.173V163.909Z" fill="#DB4437" fill-opacity="0.15"/>
<path opacity="0.56" d="M102.158 396.953C102.016 269.119 249.112 187.955 370.675 222.179C459.046 246.934 500.182 317.276 510.111 335.809C537.488 386.942 569.119 494.079 506.423 546.295C466.706 579.302 401.74 587.689 355.923 561.04C336.632 549.812 322.447 533.038 316.347 512.206C312.659 499.761 313.51 484.745 298.616 479.064C291.808 476.494 284.006 476.494 276.772 478.117C243.722 485.828 222.586 524.11 185.99 520.187C164.287 517.888 149.393 499.761 136.343 484.881C114.782 460.126 102.158 429.283 102.158 396.953Z" fill="#5792F5" fill-opacity="0.5"/>
<path d="M180.549 316.131C188.209 288.13 245.373 299.493 283.105 253.229C301.545 230.638 315.446 194.114 305.942 161.107C290.339 106.862 223.103 102.398 223.387 68.8505C223.671 34.7615 291.616 -9.74361 345.234 1.88994C407.363 15.2821 413.179 95.6347 476.159 102.669C514.174 106.998 533.182 80.0783 556.445 91.0354C590.346 106.998 589.495 174.77 580.984 214.946C565.948 286.236 514.174 329.659 495.734 344.674C480.698 356.984 375.022 440.448 270.764 405.141C220.55 388.097 172.748 343.998 180.549 316.131Z" fill="url(#paint0_linear_544_4)"/>
<path d="M305.06 457.227C340.238 415.833 398.253 436.53 414.282 406.229C432.155 372.275 376.409 313.837 350.593 286.782C312.719 247.147 279.953 212.787 226.476 207.511C165.907 201.424 94.4163 234.025 85.4799 276.772C76.8272 318.165 132.999 341.162 123.211 379.445C110.303 429.225 6.7546 423.679 0.371469 461.962C-5.30243 496.321 71.5789 540.962 138.531 553.542C155.411 556.653 236.973 571.939 274.704 530.816C297.825 505.655 281.513 484.958 305.06 457.227Z" fill="#F4B400" fill-opacity="0.79"/>
<defs>
<linearGradient id="paint0_linear_544_4" x1="223.602" y1="413.118" x2="457.25" y2="34.9155" gradientUnits="userSpaceOnUse">
<stop stop-color="#86E3CE"/>
<stop offset="1" stop-color="#D0E6A5"/>
</linearGradient>
</defs>
</svg>
